<?xml version="1.0" encoding="utf-8"?>
<!-- Generator: Adobe Illustrator 23.0.3, SVG Export Plug-In . SVG Version: 6.00 Build 0)  -->
<svg version="1.1" id="Layer_2" xmlns="http://www.w3.org/2000/svg" xmlns:xlink="http://www.w3.org/1999/xlink" x="0px" y="0px"
	 viewBox="0 0 1541.33 883.69" style="enable-background:new 0 0 1541.33 883.69;" xml:space="preserve">
<style type="text/css">
	.st0{fill:none;stroke:#000000;stroke-width:3;stroke-miterlimit:10;}
</style>
<polygon class="st0" points="642.2,475.33 642.2,550.12 958.67,550.12 958.67,473.1 "/>
<line class="st0" x1="719.23" y1="474.79" x2="719.23" y2="550.12"/>
<line class="st0" x1="796.23" y1="474.79" x2="796.23" y2="550.12"/>
<line class="st0" x1="835.23" y1="474.79" x2="835.23" y2="550.12"/>
<line class="st0" x1="876.23" y1="474.79" x2="876.23" y2="550.12"/>
<line class="st0" x1="916.23" y1="474.79" x2="916.23" y2="550.12"/>
<line class="st0" x1="719.23" y1="511.61" x2="958.67" y2="511.61"/>
<polygon class="st0" points="642.2,578.59 642.2,639.42 943.6,639.42 943.6,578.59 691.88,578.59 "/>
<line class="st0" x1="693.55" y1="639.42" x2="693.55" y2="578.59"/>
<line class="st0" x1="742.55" y1="639.42" x2="742.55" y2="578.59"/>
<line class="st0" x1="792.55" y1="639.42" x2="792.55" y2="578.59"/>
<line class="st0" x1="842.55" y1="639.42" x2="842.55" y2="578.59"/>
<line class="st0" x1="892.55" y1="639.42" x2="892.55" y2="578.59"/>
<line class="st0" x1="642.2" y1="609" x2="693.55" y2="609"/>
<polyline class="st0" points="943.6,636.69 958.67,636.69 958.67,856.13 593.86,856.13 593.86,703.78 593.86,639.42 642.2,639.42 
	"/>
<path class="st0" d="M683.52,702.52v153.61V702.52z"/>
<path class="st0" d="M652.81,692.86v9.91h-11.59C641.22,702.78,638.13,692.86,652.81,692.86z"/>
<path class="st0" d="M628.95,692.86v9.91h11.59C640.54,702.78,643.63,692.86,628.95,692.86z"/>
<path class="st0" d="M638.69,624.86v13.86h-18.33C620.36,638.72,615.47,624.86,638.69,624.86z"/>
<path class="st0" d="M600.95,624.86v13.86h18.33C619.28,638.72,624.17,624.86,600.95,624.86z"/>
<polyline class="st0" points="958.67,658.21 977.65,658.21 977.65,740.82 1000.71,740.82 1000.71,751.98 977.27,751.98 
	977.27,856.13 1135.78,856.13 1135.78,751.24 1000.71,751.98 "/>
<path class="st0" d="M959.21,669.84l-0.02-9.91l11.59-0.03C970.78,659.9,973.89,669.81,959.21,669.84z"/>
<path class="st0" d="M959.21,849.86l-0.02-9.94l11.62-0.03C970.81,839.9,973.93,849.83,959.21,849.86z"/>
<path class="st0" d="M977.21,825.9l-0.02,9.94l11.62,0.03C988.81,835.86,991.93,825.93,977.21,825.9z"/>
<line class="st0" x1="959.19" y1="813" x2="977.19" y2="813"/>
<polyline class="st0" points="32.72,216.17 32.72,31.05 276.68,31.05 276.68,43.28 361.09,43.28 361.09,31.05 1505.27,31.05 
	1505.27,92.33 1428.84,92.33 1428.56,120.85 1482.46,120.85 1482.46,503 1253.17,503 1253.17,844.33 1135.78,844.33 1135.78,478.47 
	1019.31,478.47 1019.31,751.9 "/>
<polyline class="st0" points="593.86,856.13 32.72,856.13 32.72,238.12 "/>
<polyline class="st0" points="107.65,703.78 343.32,703.78 343.32,856.13 "/>
<line class="st0" x1="32.72" y1="703.78" x2="71.09" y2="703.78"/>
<polyline class="st0" points="411.13,856.13 411.13,703.78 593.86,703.78 638.69,703.78 683.52,703.78 "/>
<line class="st0" x1="343.32" y1="783.7" x2="411.13" y2="783.7"/>
<polyline class="st0" points="343.32,703.78 343.32,691.33 354.06,680.58 411.13,680.58 411.13,708.07 "/>
<path class="st0" d="M388.25,680.58c0,0-1.49,15.58,22.88,15.58"/>
<path class="st0" d="M427.88,702.86v-13.21c0,0,18.98,1.12,18.98,13.21"/>
<path class="st0" d="M343.32,723.52h-10.7v-19.74c0,0,0-7.52,10.7-7.52"/>
<path class="st0" d="M353.27,702.86"/>
<polyline class="st0" points="366.48,679.79 366.48,666.58 371.13,666.58 409.27,666.58 409.27,679.79 "/>
<line class="st0" x1="370.95" y1="679.79" x2="370.95" y2="666.58"/>
<line class="st0" x1="375.95" y1="679.79" x2="375.95" y2="666.58"/>
<line class="st0" x1="380.95" y1="679.79" x2="380.95" y2="666.58"/>
<line class="st0" x1="385.95" y1="679.79" x2="385.95" y2="666.58"/>
<path class="st0" d="M465.86,702.86v-13.21c0,0-18.98,1.12-18.98,13.21"/>
<polyline class="st0" points="562.02,703.78 562.02,776.17 547.33,776.17 547.33,799.24 562.02,799.24 562.02,856.13 "/>
<polyline class="st0" points="411.13,799.24 547.33,799.24 562.02,799.24 562.02,830.86 490.58,830.86 490.58,799.24 "/>
<path class="st0" d="M547.33,785.84h17.48c0,0-0.54,13.4-17.48,13.4V785.84z"/>
<path class="st0" d="M501.93,856.05v-11.72c0,0,19.72,0.19,19.72,11.72H501.93z"/>
<path class="st0" d="M541.65,856.05v-11.72c0,0-19.72,0.19-19.72,11.72H541.65z"/>
<path class="st0" d="M522.62,830.86v10.19c0,0,12.14,0,12.14-10.19H522.62z"/>
<path class="st0" d="M561.76,830.86v10.19c0,0-12.14,0-12.14-10.19H561.76z"/>
<path class="st0" d="M583.41,703.78v12.86c0,0-17.49,0.89-17.49-12.86H583.41z"/>
<path class="st0" d="M593.86,671.61h-22.17c0,0-0.68-13.77,22.17-13.77V671.61z"/>
<path class="st0" d="M593.86,643.84h-22.17c0,0-0.68,13.77,22.17,13.77V643.84z"/>
<polyline class="st0" points="99.38,718.83 108.44,703.78 117.18,703.78 117.18,735.24 59.69,735.24 59.69,703.78 70.48,703.78 
	80.16,719.51 "/>
<polyline class="st0" points="33.83,661.19 47.09,661.19 54.67,673.19 "/>
<polyline class="st0" points="32.11,626.96 102.81,626.96 102.81,661.19 85.65,661.19 78.25,673.19 "/>
<polyline class="st0" points="102.81,626.96 173.3,626.96 181.48,639.24 "/>
<polyline class="st0" points="201.83,639.24 209.65,626.96 251.32,626.96 251.32,642.59 593.86,642.59 "/>
<polyline class="st0" points="95.04,626.96 95.04,609.84 95.04,606.68 144.72,606.68 144.72,626.96 "/>
<polyline class="st0" points="107.65,625.47 107.65,620.07 121.65,620.07 121.65,625.47 "/>
<polyline class="st0" points="130.65,625.47 130.65,620.07 144.65,620.07 144.65,625.47 "/>
<polyline class="st0" points="96.53,606 96.53,598.75 143.04,598.75 143.04,606.93 "/>
<line class="st0" x1="97.65" y1="602.84" x2="142.15" y2="602.84"/>
<polyline class="st0" points="264.07,605.65 257.09,605.65 257.09,626.96 251.32,626.96 "/>
<line class="st0" x1="302.3" y1="641.82" x2="302.3" y2="606.33"/>
<line class="st0" x1="295.6" y1="605.54" x2="309" y2="605.54"/>
<line class="st0" x1="348.3" y1="641.82" x2="348.3" y2="606.33"/>
<line class="st0" x1="341.6" y1="605.54" x2="355" y2="605.54"/>
<polyline class="st0" points="391.83,460.26 442.58,460.26 442.58,641.82 "/>
<line class="st0" x1="442.58" y1="591.79" x2="394.85" y2="591.79"/>
<polyline class="st0" points="394.06,581.75 394.06,604.07 385.13,604.07 "/>
<line class="st0" x1="442.58" y1="548.79" x2="394.85" y2="548.79"/>
<line class="st0" x1="442.58" y1="507.79" x2="394.85" y2="507.79"/>
<line class="st0" x1="393.69" y1="540.07" x2="393.69" y2="558.12"/>
<line class="st0" x1="393.69" y1="499.07" x2="393.69" y2="517.12"/>
<line class="st0" x1="393.69" y1="459.07" x2="393.69" y2="477.12"/>
<path class="st0" d="M393.85,445.19v12.28h-20.36C373.48,457.47,373.28,445.19,393.85,445.19z"/>
<path class="st0" d="M393.85,443.47v-12.28h-20.36C373.48,431.19,373.28,443.47,393.85,443.47z"/>
<polyline class="st0" points="393.85,431.19 393.85,389.56 591.41,389.56 591.41,460.07 442.58,460.07 "/>
<polyline class="st0" points="593.86,639.42 593.86,477.12 574.95,477.12 574.95,460.26 "/>
<line class="st0" x1="442.58" y1="570.49" x2="593.86" y2="570.49"/>
<path class="st0" d="M593.86,589.19H576.9c0,0,0.71-11.72,16.96-11.72"/>
<path class="st0" d="M593.86,563.19H576.9c0,0,0.71-11.72,16.96-11.72"/>
<path class="st0" d="M593.86,490.19H576.9c0,0,0.71-11.72,16.96-11.72"/>
<path class="st0" d="M591.86,459.19H574.9c0,0,0.71-11.72,16.96-11.72"/>
<polyline class="st0" points="33.9,473.1 101.79,473.1 101.79,386.59 33.9,386.59 "/>
<path class="st0" d="M102.11,429.84v7.49h12.53C114.65,437.33,115.51,429.84,102.11,429.84z"/>
<path class="st0" d="M102.11,428.33v-7.49h12.53C114.65,420.84,115.51,428.33,102.11,428.33z"/>
<path class="st0" d="M590.86,387.61h-22.17c0,0-0.68-13.77,22.17-13.77V387.61z"/>
<path class="st0" d="M590.86,359.84h-22.17c0,0-0.68,13.77,22.17,13.77V359.84z"/>
<line class="st0" x1="1482.46" y1="144.35" x2="33.9" y2="144.35"/>
<polyline class="st0" points="590.38,213.56 66.84,213.56 66.84,241.47 33.83,241.47 "/>
<path class="st0" d="M590.86,387.61"/>
<line class="st0" x1="590.41" y1="144.35" x2="590.41" y2="387.61"/>
<polyline class="st0" points="657.27,144.35 657.27,124.82 585.38,124.82 585.38,55.33 585.38,70.4 502.39,70.4 502.39,144.35 "/>
<polyline class="st0" points="484.81,144.35 484.81,202.68 590.38,202.68 "/>
<line class="st0" x1="98.02" y1="144.35" x2="98.02" y2="213.56"/>
<line class="st0" x1="171.02" y1="144.35" x2="171.02" y2="213.56"/>
<line class="st0" x1="320.02" y1="144.35" x2="320.02" y2="213.56"/>
<line class="st0" x1="392.02" y1="144.35" x2="392.02" y2="213.56"/>
<line class="st0" x1="441.02" y1="144.35" x2="441.02" y2="213.56"/>
<path class="st0" d="M80.53,213.56c0,0,1.12-10.98,17.49-10.98"/>
<path class="st0" d="M50.21,144.91v13.02c0,0,15.81,0.93,15.81-13.02"/>
<path class="st0" d="M99.21,144.91v13.02c0,0,15.81,0.93,15.81-13.02"/>
<path class="st0" d="M205.37,212.07v-9.49c0,0-15.26-0.74-15.26,10.98"/>
<path class="st0" d="M172.11,202.59c0,0,15.26-0.74,15.26,10.98"/>
<path class="st0" d="M205.37,146.06v9.49c0,0-15.26,0.74-15.26-10.98"/>
<path class="st0" d="M172.11,155.55c0,0,15.26,0.74,15.26-10.98"/>
<path class="st0" d="M391.37,212.07v-9.49c0,0-15.26-0.74-15.26,10.98"/>
<line class="st0" x1="441.02" y1="185.47" x2="392.02" y2="185.47"/>
<path class="st0" d="M419.51,186.4"/>
<path class="st0" d="M440.16,185.45c0,0-20.65-1.79-20.65,15.88l20.65-0.05c0,0-20.65,1.79-20.65-15.88"/>
<path class="st0" d="M440.16,145.45c0,0-20.65-1.79-20.65,15.88l20.65-0.05c0,0-20.65,1.79-20.65-15.88"/>
<path class="st0" d="M489.83,144.35c0,0,1.12-12.28,12.56-12.28"/>
<polyline class="st0" points="32.72,196.45 71.97,196.45 71.97,213.56 "/>
<polyline class="st0" points="32.72,190.49 71.97,190.49 71.97,196.45 "/>
<path class="st0" d="M83.88,257.84"/>
<line class="st0" x1="1019.31" y1="631.05" x2="1135.78" y2="631.05"/>
<path class="st0" d="M1019.31,610.03h16.94c0,0-3.18,11.35-16.94,9.67V610.03z"/>
<path class="st0" d="M1019.31,630.87h16.94c0,0-3.18-11.35-16.94-9.67V630.87z"/>
<path class="st0" d="M1019.31,631.03h16.94c0,0-3.18,11.35-16.94,9.67V631.03z"/>
<path class="st0" d="M1019.31,652.87h16.94c0,0-3.18-11.35-16.94-9.67V652.87z"/>
<polyline class="st0" points="1135.78,856.13 1357.51,856.13 1357.51,844.33 1256.7,844.33 1253.17,844.33 "/>
<line class="st0" x1="1256.7" y1="856.13" x2="1256.7" y2="844.33"/>
<line class="st0" x1="1330.7" y1="856.13" x2="1330.7" y2="844.33"/>
<line class="st0" x1="1135.78" y1="836.39" x2="1253.17" y2="836.39"/>
<path class="st0" d="M1187.36,835.09v15.71c0,0,18.91,4.87,18.91-14.04"/>
<polyline class="st0" points="1135.78,478.47 1330.7,478.47 1330.7,416.11 1330.7,401.84 "/>
<line class="st0" x1="1482.46" y1="413.59" x2="1330.7" y2="413.59"/>
<polyline class="st0" points="1482.46,343.9 1509.24,343.9 1509.24,516.87 1482.46,516.87 1482.46,503 "/>
<line class="st0" x1="1482.46" y1="390.08" x2="1509.24" y2="390.08"/>
<line class="st0" x1="1452.99" y1="401.84" x2="1452.99" y2="427.03"/>
<path class="st0" d="M1476.34,413.59v-11.75c0,0-17.13-0.13-17.13,11.75"/>
<path class="st0" d="M1482.46,443.29h17.52c0,0-1.46-12.91-17.52-12.91"/>
<line class="st0" x1="1482.46" y1="497.08" x2="1509.24" y2="497.08"/>
<line class="st0" x1="1482.46" y1="502.08" x2="1509.24" y2="502.08"/>
<line class="st0" x1="1482.46" y1="507.08" x2="1509.24" y2="507.08"/>
<line class="st0" x1="1482.46" y1="512.08" x2="1509.24" y2="512.08"/>
<polyline class="st0" points="1136.99,502.56 1165.18,502.56 1183.6,502.56 1183.6,519.59 1183.6,543.31 1136.99,543.31 "/>
<path class="st0" d="M1165.18,502.56"/>
<path class="st0" d="M1165.18,502.56c0,0-4.74,17.02,18.42,17.02"/>
<polyline class="st0" points="1253.6,502.56 1225.41,502.56 1206.99,502.56 1206.99,519.59 1206.99,543.31 1253.6,543.31 "/>
<path class="st0" d="M1225.41,502.56c0,0,4.74,17.02-18.42,17.02"/>
<path class="st0" d="M1184.25,478.47v-8.81c0,0,9.86,0.88,12.28,8.81H1184.25z"/>
<path class="st0" d="M1208.53,478.47v-8.81c0,0-9.86,0.88-12.28,8.81H1208.53z"/>
<polyline class="st0" points="884.44,65.1 734.3,65.1 734.3,144.35 734.3,210.21 887.6,210.21 930.02,210.21 930.02,144.35 "/>
<line class="st0" x1="911.78" y1="65.1" x2="1198.11" y2="65.1"/>
<polyline class="st0" points="1311.97,144.35 1311.97,65.1 1229.37,65.1 1229.37,144.35 "/>
<line class="st0" x1="870.48" y1="65.1" x2="870.48" y2="144.35"/>
<path class="st0" d="M755.51,65.1c0,0-1.86,16.74-21.21,16.74"/>
<polyline class="st0" points="916.25,65.1 916.25,85.75 948.62,85.75 948.62,121.75 870.48,121.75 "/>
<line class="st0" x1="915.69" y1="121.75" x2="915.69" y2="144.35"/>
<path class="st0" d="M880.53,121.75v-11.72c0,0,12.84,0,17.58,11.72"/>
<path class="st0" d="M916.53,85.75V74.03c0,0,12.84,0,17.58,11.72"/>
<path class="st0" d="M916.53,122.03v11.72c0,0,12.84,0,17.58-11.72"/>
<polyline class="st0" points="948.62,102.77 1121.92,102.77 1121.92,66.21 "/>
<polyline class="st0" points="948.62,108.91 1121.92,108.91 1121.92,144.35 "/>
<line class="st0" x1="1135.88" y1="65.1" x2="1135.88" y2="144.35"/>
<line class="st0" x1="1189.46" y1="65.1" x2="1189.46" y2="93.42"/>
<polyline class="st0" points="1229.37,92.45 1179.13,92.45 1135.88,92.45 "/>
<line class="st0" x1="1180.53" y1="144.35" x2="1180.53" y2="92.45"/>
<line class="st0" x1="1135.88" y1="127.89" x2="1180.53" y2="127.89"/>
<path class="st0" d="M1180.53,122.03h-18.7c0,0,2.05-13.12,18.7-13.12"/>
<path class="st0" d="M1189.53,92.03h-18.7c0,0,2.05-13.12,18.7-13.12"/>
<path class="st0" d="M1180.53,128.91h-18.7c0,0,2.05,13.12,18.7,13.12"/>
<path class="st0" d="M1230.53,92.91h-18.7c0,0,2.05,13.12,18.7,13.12"/>
<line class="st0" x1="1229.37" y1="65.1" x2="1229.37" y2="31.05"/>
<path class="st0" d="M1230.83,57.03h18.7c0,0-2.05-13.12-18.7-13.12"/>
<path class="st0" d="M1230.83,30.91h18.7c0,0-2.05,13.12-18.7,13.12"/>
<path class="st0" d="M1289.09,65.1c0,0,3.91,13.02,15.63,13.02V65.1H1289.09z"/>
<line class="st0" x1="1482.46" y1="93.42" x2="1482.46" y2="125.28"/>
<polyline class="st0" points="1433.72,92.45 1433.72,99.47 1448.79,99.47 1448.79,93.42 "/>
<line class="st0" x1="1311.97" y1="133.97" x2="1317.23" y2="133.97"/>
<polyline class="st0" points="1361.57,133.97 1368.23,133.97 1368.23,144.35 "/>
<path class="st0" d="M1482.46,112.17h18.91c0,0-4.88-11.35-18.91-11.35V112.17z"/>
<path class="st0" d="M1409.46,143.42c0-11.35,17.3-12.09,17.3-12.09v12.09v24v32.93h9.67"/>
<path class="st0" d="M587.32,144.35v-6.14h-16c0,0,1.33-13.4,14.06-13.4"/>
<path class="st0" d="M690.39,144.37v17.4c0,0,18.38-0.03,18.38-17.38L690.39,144.37z"/>
<path class="st0" d="M728.77,144.37v17.4c0,0-18.38-0.03-18.38-17.38L728.77,144.37z"/>
<line class="st0" x1="885.74" y1="144.37" x2="885.74" y2="210.21"/>
<line class="st0" x1="585.38" y1="118.12" x2="585.38" y2="138.21"/>
<path class="st0" d="M579.32,202.68v-14.79c0,0-20,0.56-20.56,14.79H579.32z"/>
<polyline class="st0" points="930.02,180.18 973.92,180.18 973.92,144.37 1131.43,144.37 1131.43,192.17 1131.43,231.75 
	973.52,231.75 973.52,206.57 948.62,206.57 "/>
<path class="st0" d="M1155.69,216.35"/>
<polyline class="st0" points="973.52,208.54 999.41,208.54 999.41,192.17 1131.43,192.17 1331.5,192.17 "/>
<polyline class="st0" points="1130.02,186.77 999.41,186.77 999.41,177.29 973.92,177.29 "/>
<path class="st0" d="M880.53,208.54v-8.18c0,0-13.95,0.09-13.95,9.86"/>
<path class="st0" d="M891.58,208.54v-8.18c0,0,13.95,0.09,13.95,9.86"/>
<path class="st0" d="M930.02,189.19c0,0,13.95,2.82,13.95-9.01"/>
<path class="st0" d="M973.92,167.42c0,0,10.79-2.59,16.19,9.87"/>
<path class="st0" d="M973.92,218.4c0,0,16.19,2.79,16.19-9.86"/>
<line class="st0" x1="1331.5" y1="144.37" x2="1331.5" y2="226.59"/>
<polyline class="st0" points="1331.5,216.35 1397.37,216.35 1397.37,144.37 "/>
<line class="st0" x1="1172.62" y1="144.37" x2="1172.62" y2="192.17"/>
<line class="st0" x1="1212.62" y1="144.37" x2="1212.62" y2="192.17"/>
<line class="st0" x1="1252.62" y1="144.37" x2="1252.62" y2="192.17"/>
<line class="st0" x1="1331.5" y1="182.03" x2="1397.37" y2="182.03"/>
<line class="st0" x1="1426.76" y1="170.42" x2="1482.46" y2="170.42"/>
<line class="st0" x1="1426.76" y1="192.42" x2="1482.46" y2="192.42"/>
<path class="st0" d="M1166.24,192.17v-10.14c0,0-14.06-1.49-14.75,10.14H1166.24z"/>
<path class="st0" d="M1205.24,192.17v-10.14c0,0-14.06-1.49-14.75,10.14H1205.24z"/>
<path class="st0" d="M1247.24,192.17v-10.14c0,0-14.06-1.49-14.75,10.14H1247.24z"/>
<path class="st0" d="M1259.49,192.17v-10.14c0,0,14.06-1.49,14.75,10.14H1259.49z"/>
<path class="st0" d="M1378.76,144.37c0,0,0.19,15.43,18.6,15.43"/>
<path class="st0" d="M1378.76,182.37c0,0,0.19,15.43,18.6,15.43"/>
<path class="st0" d="M1426.76,162.77h20.28c0,0-2.98-13.4-20.28-13.4V162.77z"/>
<path class="st0" d="M1426.76,177.38h20.28c0,0-2.98,13.4-20.28,13.4V177.38z"/>
<rect x="212.44" y="157.95" class="st0" width="9.49" height="9.49"/>
<rect x="212.44" y="236.95" class="st0" width="9.49" height="9.49"/>
<rect x="212.44" y="314.95" class="st0" width="9.49" height="9.49"/>
<rect x="212.44" y="390.95" class="st0" width="9.49" height="9.49"/>
<rect x="212.44" y="467.95" class="st0" width="9.49" height="9.49"/>
<rect x="212.44" y="544.95" class="st0" width="9.49" height="9.49"/>
<rect x="401.44" y="236.95" class="st0" width="9.49" height="9.49"/>
<rect x="401.44" y="314.95" class="st0" width="9.49" height="9.49"/>
<rect x="401.44" y="390.95" class="st0" width="9.49" height="9.49"/>
<rect x="401.44" y="467.95" class="st0" width="9.49" height="9.49"/>
<rect x="401.44" y="544.95" class="st0" width="9.49" height="9.49"/>
<rect x="401.44" y="620.95" class="st0" width="9.49" height="9.49"/>
<rect x="580.44" y="236.95" class="st0" width="9.49" height="9.49"/>
<rect x="580.44" y="314.95" class="st0" width="9.49" height="9.49"/>
<rect x="580.44" y="390.95" class="st0" width="9.49" height="9.49"/>
<rect x="580.44" y="467.95" class="st0" width="9.49" height="9.49"/>
<rect x="580.44" y="544.95" class="st0" width="9.49" height="9.49"/>
<rect x="580.44" y="620.95" class="st0" width="9.49" height="9.49"/>
<rect x="761.44" y="236.95" class="st0" width="9.49" height="9.49"/>
<rect x="761.44" y="314.95" class="st0" width="9.49" height="9.49"/>
<rect x="761.44" y="390.95" class="st0" width="9.49" height="9.49"/>
<rect x="761.44" y="464.95" class="st0" width="9.49" height="9.49"/>
<rect x="761.44" y="544.95" class="st0" width="9.49" height="9.49"/>
<rect x="761.44" y="620.95" class="st0" width="9.49" height="9.49"/>
<rect x="942.44" y="231.95" class="st0" width="9.49" height="9.49"/>
<rect x="942.44" y="309.95" class="st0" width="9.49" height="9.49"/>
<rect x="942.44" y="385.95" class="st0" width="9.49" height="9.49"/>
<rect x="942.44" y="462.95" class="st0" width="9.49" height="9.49"/>
<rect x="942.44" y="539.95" class="st0" width="9.49" height="9.49"/>
<rect x="947.44" y="620.95" class="st0" width="9.49" height="9.49"/>
<rect x="761.44" y="694.95" class="st0" width="9.49" height="9.49"/>
<rect x="1123.44" y="305.95" class="st0" width="9.49" height="9.49"/>
<rect x="1123.44" y="381.95" class="st0" width="9.49" height="9.49"/>
<rect x="1123.44" y="458.95" class="st0" width="9.49" height="9.49"/>
<rect x="1313.44" y="306.95" class="st0" width="9.49" height="9.49"/>
<rect x="1313.44" y="382.95" class="st0" width="9.49" height="9.49"/>
<rect x="1313.44" y="459.95" class="st0" width="9.49" height="9.49"/>
<rect x="1313.44" y="225.95" class="st0" width="9.49" height="9.49"/>
</svg>
