<?xml version="1.0" encoding="utf-8"?>
<!-- Generator: Adobe Illustrator 23.0.4, SVG Export Plug-In . SVG Version: 6.00 Build 0)  -->
<svg version="1.1" id="Layer_2" xmlns="http://www.w3.org/2000/svg" xmlns:xlink="http://www.w3.org/1999/xlink" x="0px" y="0px"
	 viewBox="0 0 319.42 884.95" style="enable-background:new 0 0 319.42 884.95;" xml:space="preserve">
<style type="text/css">
	.st0{fill:none;stroke:#000000;stroke-width:6;stroke-miterlimit:10;}
	.st1{fill:none;stroke:#000000;stroke-miterlimit:10;}
	.st2{fill:none;stroke:#000000;stroke-width:2;stroke-miterlimit:10;}
</style>
<polyline class="st0" points="276.56,11.68 292.19,11.68 292.19,867.3 33.51,867.3 33.51,829.91 "/>
<line class="st0" x1="241.12" y1="11.68" x2="248.1" y2="11.68"/>
<line class="st0" x1="207.91" y1="11.68" x2="215.45" y2="11.68"/>
<line class="st0" x1="175.54" y1="11.68" x2="182.24" y2="11.68"/>
<line class="st0" x1="142.33" y1="11.68" x2="148.75" y2="11.68"/>
<line class="st0" x1="108.56" y1="11.68" x2="117.22" y2="11.68"/>
<line class="st0" x1="74.52" y1="11.68" x2="82.89" y2="11.68"/>
<polyline class="st0" points="33.51,144.75 33.51,11.68 46.61,11.68 "/>
<line class="st0" x1="33.51" y1="221.74" x2="33.51" y2="165.65"/>
<line class="st0" x1="33.51" y1="311.37" x2="33.51" y2="253.08"/>
<line class="st0" x1="33.51" y1="390.55" x2="33.51" y2="332.81"/>
<line class="st0" x1="33.51" y1="419.7" x2="33.51" y2="476.88"/>
<line class="st0" x1="33.51" y1="556.07" x2="33.51" y2="498.88"/>
<line class="st0" x1="33.51" y1="644.05" x2="33.51" y2="586.86"/>
<line class="st0" x1="33.51" y1="722.13" x2="33.51" y2="664.4"/>
<line class="st0" x1="33.51" y1="810.12" x2="33.51" y2="754.03"/>
<line class="st1" x1="32.7" y1="11.68" x2="32.7" y2="867.3"/>
<line class="st1" x1="36.01" y1="806.28" x2="231.54" y2="806.28"/>
<line class="st1" x1="126.61" y1="867.3" x2="126.61" y2="806.28"/>
<line class="st1" x1="124.61" y1="867.3" x2="124.61" y2="806.28"/>
<polyline class="st0" points="211.82,867.3 211.82,855.96 233.03,855.96 233.03,758.84 265.96,758.84 "/>
<line class="st0" x1="281.96" y1="758.84" x2="291.08" y2="758.84"/>
<polyline class="st1" points="219.63,854.47 219.63,823.4 219.63,806.28 "/>
<line class="st1" x1="230.43" y1="823.03" x2="219.63" y2="823.03"/>
<line class="st1" x1="230.43" y1="839.03" x2="219.63" y2="839.03"/>
<polyline class="st1" points="234.7,789.17 241.03,789.17 241.03,858.37 285.49,858.37 285.49,789.72 291.08,789.72 "/>
<polyline class="st1" points="258.89,809.44 258.89,837.91 265.96,837.91 265.96,789.72 285.49,789.72 "/>
<line class="st2" x1="241.33" y1="809.26" x2="241.33" y2="837.91"/>
<polyline class="st1" points="260.56,837.91 260.56,789.72 265.96,789.72 "/>
<line class="st1" x1="241.33" y1="814.37" x2="258.89" y2="814.37"/>
<line class="st1" x1="241.33" y1="818.37" x2="258.89" y2="818.37"/>
<line class="st1" x1="241.33" y1="823.37" x2="258.89" y2="823.37"/>
<line class="st1" x1="241.33" y1="828.37" x2="258.89" y2="828.37"/>
<line class="st1" x1="241.33" y1="833.37" x2="258.89" y2="833.37"/>
<line class="st1" x1="265.96" y1="795.21" x2="285.49" y2="795.21"/>
<line class="st1" x1="265.96" y1="799.88" x2="285.49" y2="799.88"/>
<line class="st1" x1="265.96" y1="804.55" x2="285.49" y2="804.55"/>
<line class="st1" x1="265.96" y1="809.21" x2="285.49" y2="809.21"/>
<line class="st1" x1="265.96" y1="813.88" x2="285.49" y2="813.88"/>
<line class="st1" x1="265.96" y1="818.55" x2="285.49" y2="818.55"/>
<line class="st1" x1="265.96" y1="823.21" x2="285.49" y2="823.21"/>
<line class="st1" x1="265.96" y1="827.88" x2="285.49" y2="827.88"/>
<line class="st1" x1="265.96" y1="832.55" x2="285.49" y2="832.55"/>
<line class="st1" x1="265.96" y1="837.21" x2="285.49" y2="837.21"/>
<line class="st1" x1="241.03" y1="790.19" x2="260.56" y2="790.19"/>
<path class="st1" d="M282.55,758.43l-12.81,12.81c0,0-5.69-5.34-4.22-15.03"/>
<path class="st1" d="M213.98,806.28l-8.72,13.21c0,0-7.47-2.84-7.47-13.21"/>
<path class="st1" d="M123.84,806.58l-8.58,12.7c0,0-7.05-4.19-7.05-12.7"/>
<polyline class="st1" points="45.63,806.28 45.63,859.82 124.61,859.82 "/>
<g>
	<rect x="153.5" y="826.33" class="st1" width="41.3" height="20.79"/>
	<line class="st1" x1="159.22" y1="820.33" x2="159.22" y2="826"/>
	<line class="st1" x1="166.22" y1="820.33" x2="166.22" y2="826"/>
	<line class="st1" x1="159.45" y1="822.12" x2="166.22" y2="822.12"/>
	<line class="st1" x1="159.45" y1="824.12" x2="166.22" y2="824.12"/>
	<line class="st1" x1="172.22" y1="820.33" x2="172.22" y2="826"/>
	<line class="st1" x1="179.22" y1="820.33" x2="179.22" y2="826"/>
	<line class="st1" x1="172.45" y1="822.12" x2="179.22" y2="822.12"/>
	<line class="st1" x1="172.45" y1="824.12" x2="179.22" y2="824.12"/>
	<line class="st1" x1="185.22" y1="820.33" x2="185.22" y2="826"/>
	<line class="st1" x1="192.22" y1="820.33" x2="192.22" y2="826"/>
	<line class="st1" x1="185.45" y1="822.12" x2="192.22" y2="822.12"/>
	<line class="st1" x1="185.45" y1="824.12" x2="192.22" y2="824.12"/>
	<line class="st1" x1="159.22" y1="853" x2="159.22" y2="847.33"/>
	<line class="st1" x1="166.22" y1="853" x2="166.22" y2="847.33"/>
	<line class="st1" x1="159.45" y1="851.21" x2="166.22" y2="851.21"/>
	<line class="st1" x1="159.45" y1="849.21" x2="166.22" y2="849.21"/>
	<line class="st1" x1="172.22" y1="853" x2="172.22" y2="847.33"/>
	<line class="st1" x1="179.22" y1="853" x2="179.22" y2="847.33"/>
	<line class="st1" x1="172.45" y1="851.21" x2="179.22" y2="851.21"/>
	<line class="st1" x1="172.45" y1="849.21" x2="179.22" y2="849.21"/>
	<line class="st1" x1="185.22" y1="853" x2="185.22" y2="847.33"/>
	<line class="st1" x1="192.22" y1="853" x2="192.22" y2="847.33"/>
	<line class="st1" x1="185.45" y1="851.21" x2="192.22" y2="851.21"/>
	<line class="st1" x1="185.45" y1="849.21" x2="192.22" y2="849.21"/>
	<line class="st1" x1="153.5" y1="832.93" x2="149.26" y2="832.93"/>
	<line class="st1" x1="153.5" y1="839.93" x2="149.26" y2="839.93"/>
	<line class="st1" x1="150.89" y1="832.93" x2="150.89" y2="839.93"/>
	<line class="st1" x1="195.26" y1="832.93" x2="199.5" y2="832.93"/>
	<line class="st1" x1="195.26" y1="839.93" x2="199.5" y2="839.93"/>
	<line class="st1" x1="197.87" y1="832.93" x2="197.87" y2="839.93"/>
</g>
<polyline class="st1" points="290.15,731.93 228.94,731.93 228.94,685.05 228.94,640.96 291.08,640.96 "/>
<line class="st1" x1="289.59" y1="685.44" x2="228.94" y2="685.44"/>
<line class="st1" x1="289.59" y1="683.44" x2="228.94" y2="683.44"/>
<line class="st2" x1="227.54" y1="712.7" x2="227.54" y2="730.47"/>
<line class="st2" x1="227.54" y1="666.7" x2="227.54" y2="684.47"/>
<g>
	<line class="st1" x1="258.15" y1="697.54" x2="262.05" y2="691.91"/>
	<line class="st1" x1="265.54" y1="702.57" x2="269.45" y2="696.94"/>
	<line class="st1" x1="260.98" y1="693.96" x2="268.14" y2="698.83"/>
	<line class="st1" x1="261.66" y1="692.47" x2="269.04" y2="697.54"/>
	<path class="st1" d="M259.21,696.55c-0.55,2.12,0.2,4.14,2.2,5.22c1.55,0.84,3.68,0.95,4.8-0.6"/>
</g>
<g>
	<line class="st1" x1="234.24" y1="704.07" x2="230.8" y2="698.14"/>
	<line class="st1" x1="241.94" y1="699.51" x2="238.5" y2="693.58"/>
	<line class="st1" x1="232.2" y1="699.98" x2="239.65" y2="695.57"/>
	<line class="st1" x1="231.15" y1="698.73" x2="238.86" y2="694.21"/>
	<path class="st1" d="M233.8,702.69c1.69,1.4,3.83,1.57,5.66,0.22c1.42-1.05,2.42-2.93,1.49-4.6"/>
</g>
<g>
	<polygon class="st1" points="281.31,707.91 280.12,707.91 273.26,707.91 272.08,707.91 267.49,712.68 267.49,720.42 272.4,725.53 
		273.26,725.53 280.12,725.53 280.98,725.53 285.89,720.42 285.89,712.68 	"/>
	<g>
		<polyline class="st1" points="266.21,710.79 270.2,706.8 271.11,705.89 		"/>
		<line class="st1" x1="271.46" y1="708.55" x2="269.96" y2="707.04"/>
		<line class="st1" x1="268.89" y1="711.2" x2="267.39" y2="709.7"/>
	</g>
	<g>
		<polyline class="st1" points="282.96,706.6 286.92,710.63 287.82,711.55 		"/>
		<line class="st1" x1="285.16" y1="711.88" x2="286.68" y2="710.39"/>
		<line class="st1" x1="282.53" y1="709.29" x2="284.05" y2="707.79"/>
	</g>
	<g>
		<polyline class="st1" points="266.21,721.98 270.2,725.97 271.11,726.88 		"/>
		<line class="st1" x1="271.46" y1="724.22" x2="269.96" y2="725.73"/>
		<line class="st1" x1="268.89" y1="721.57" x2="267.39" y2="723.08"/>
	</g>
	<g>
		<polyline class="st1" points="282.96,726.17 286.92,722.14 287.82,721.22 		"/>
		<line class="st1" x1="285.16" y1="720.89" x2="286.68" y2="722.38"/>
		<line class="st1" x1="282.53" y1="723.49" x2="284.05" y2="724.98"/>
	</g>
</g>
<g>
	<polygon class="st1" points="281.31,662.91 280.12,662.91 273.26,662.91 272.08,662.91 267.49,667.68 267.49,675.42 272.4,680.53 
		273.26,680.53 280.12,680.53 280.98,680.53 285.89,675.42 285.89,667.68 	"/>
	<g>
		<polyline class="st1" points="266.21,665.79 270.2,661.8 271.11,660.89 		"/>
		<line class="st1" x1="271.46" y1="663.55" x2="269.96" y2="662.04"/>
		<line class="st1" x1="268.89" y1="666.2" x2="267.39" y2="664.7"/>
	</g>
	<g>
		<polyline class="st1" points="282.96,661.6 286.92,665.63 287.82,666.55 		"/>
		<line class="st1" x1="285.16" y1="666.88" x2="286.68" y2="665.39"/>
		<line class="st1" x1="282.53" y1="664.29" x2="284.05" y2="662.79"/>
	</g>
	<g>
		<polyline class="st1" points="266.21,676.98 270.2,680.97 271.11,681.88 		"/>
		<line class="st1" x1="271.46" y1="679.22" x2="269.96" y2="680.73"/>
		<line class="st1" x1="268.89" y1="676.57" x2="267.39" y2="678.08"/>
	</g>
	<g>
		<polyline class="st1" points="282.96,681.17 286.92,677.14 287.82,676.22 		"/>
		<line class="st1" x1="285.16" y1="675.89" x2="286.68" y2="677.38"/>
		<line class="st1" x1="282.53" y1="678.49" x2="284.05" y2="679.98"/>
	</g>
</g>
<g>
	<line class="st1" x1="258.73" y1="648.74" x2="262.64" y2="643.12"/>
	<line class="st1" x1="266.13" y1="653.78" x2="270.04" y2="648.15"/>
	<line class="st1" x1="261.57" y1="645.16" x2="268.73" y2="650.03"/>
	<line class="st1" x1="262.25" y1="643.68" x2="269.62" y2="648.74"/>
	<path class="st1" d="M259.79,647.75c-0.55,2.12,0.2,4.14,2.2,5.22c1.55,0.84,3.68,0.95,4.8-0.6"/>
</g>
<g>
	<line class="st1" x1="234.83" y1="655.27" x2="231.39" y2="649.35"/>
	<line class="st1" x1="242.52" y1="650.71" x2="239.08" y2="644.79"/>
	<line class="st1" x1="232.79" y1="651.19" x2="240.24" y2="646.77"/>
	<line class="st1" x1="231.73" y1="649.94" x2="239.45" y2="645.41"/>
	<path class="st1" d="M234.38,653.9c1.69,1.4,3.83,1.57,5.66,0.22c1.42-1.05,2.42-2.93,1.49-4.6"/>
</g>
<polyline class="st1" points="289.59,637.82 228.94,637.82 228.94,609.91 "/>
<path class="st1" d="M243.31,594.7c0,15.21-14.65,15.21-14.65,15.21"/>
<line class="st2" x1="228.66" y1="594.7" x2="243.77" y2="594.7"/>
<polyline class="st2" points="291.08,591.35 235.59,591.35 235.59,508.05 239.45,508.05 "/>
<polyline class="st2" points="255.63,508.05 264.84,508.05 264.84,473.58 255.63,473.58 "/>
<polyline class="st2" points="238.75,473.58 235.59,473.58 235.59,374.38 292.19,374.38 "/>
<polyline class="st2" points="255.63,575.03 255.63,563.86 281.45,563.86 "/>
<polyline class="st2" points="264.84,508.05 282.43,508.05 290.24,508.05 "/>
<line class="st2" x1="282.01" y1="591.1" x2="282.01" y2="508.05"/>
<line class="st2" x1="285.01" y1="591.1" x2="285.01" y2="508.05"/>
<line class="st2" x1="281.45" y1="547.26" x2="255.63" y2="547.26"/>
<path class="st1" d="M240.15,590.38c0,0,0.84-15.35,15.4-15.35"/>
<path class="st1" d="M238.19,508.54l12.21,12.07c0,0,6.91-4.84,5.23-12.09"/>
<line class="st1" x1="264.84" y1="473.58" x2="289.75" y2="473.58"/>
<line class="st1" x1="265.61" y1="474" x2="289.33" y2="507.14"/>
<line class="st1" x1="265.33" y1="507.14" x2="290.8" y2="472.12"/>
<line class="st1" x1="238.82" y1="508.54" x2="258.84" y2="508.54"/>
<path class="st1" d="M237.15,472.96l13.67-12.7c0,0,6.21,5.26,4.81,12.86"/>
<line class="st1" x1="237.84" y1="473.58" x2="259.19" y2="473.58"/>
<path class="st1" d="M285.01,473.58"/>
<polyline class="st2" points="255.63,412.26 255.63,423.42 281.45,423.42 "/>
<line class="st2" x1="282.01" y1="474.1" x2="282.01" y2="395.49"/>
<line class="st2" x1="285.01" y1="474.1" x2="285.01" y2="395.49"/>
<path class="st2" d="M268.54,423.42"/>
<polyline class="st2" points="255.63,437.35 255.63,440.03 281.45,440.03 "/>
<rect x="215.31" y="446.03" width="4.4" height="4.4"/>
<polyline class="st1" points="241.4,591.1 224.66,591.1 224.66,534.28 224.66,532.05 234.83,532.05 "/>
<line class="st1" x1="235.59" y1="534.28" x2="224.66" y2="534.28"/>
<line class="st1" x1="235.59" y1="549.28" x2="224.66" y2="549.28"/>
<line class="st1" x1="235.59" y1="562.28" x2="224.66" y2="562.28"/>
<line class="st1" x1="235.59" y1="577.28" x2="224.66" y2="577.28"/>
<rect x="215.54" y="615.03" width="4.47" height="4.47"/>
<rect x="103.54" y="615.03" width="4.47" height="4.47"/>
<rect x="103.54" y="699.03" width="4.47" height="4.47"/>
<rect x="215.54" y="530.03" width="4.47" height="4.47"/>
<rect x="103.54" y="530.03" width="4.47" height="4.47"/>
<rect x="103.54" y="446.03" width="4.47" height="4.47"/>
<rect x="215.31" y="362.03" width="4.4" height="4.4"/>
<rect x="103.54" y="362.03" width="4.47" height="4.47"/>
<rect x="215.31" y="278.03" width="4.4" height="4.4"/>
<rect x="103.54" y="278.03" width="4.47" height="4.47"/>
<polyline class="st1" points="235.59,449.07 224.66,449.07 224.66,374.38 237.15,374.38 "/>
<line class="st1" x1="224.66" y1="388.61" x2="235.59" y2="388.61"/>
<line class="st1" x1="224.66" y1="403.61" x2="235.59" y2="403.61"/>
<line class="st1" x1="224.66" y1="416.61" x2="235.59" y2="416.61"/>
<line class="st1" x1="224.66" y1="431.61" x2="235.59" y2="431.61"/>
<line class="st1" x1="235.59" y1="395.65" x2="289.43" y2="395.65"/>
<path class="st2" d="M235.59,374.38"/>
<line class="st1" x1="236.15" y1="375.12" x2="289.43" y2="394.72"/>
<line class="st1" x1="235.15" y1="395.72" x2="290.43" y2="375.12"/>
<path class="st1" d="M239.99,395.72c0,0,1.29,19.06,15.65,17.53"/>
<path class="st1" d="M268.54,423.42c0,0,0.11,11.99-12.7,12.68"/>
<polyline class="st2" points="228.19,374.38 228.19,233.07 228.19,191.77 290.8,191.77 "/>
<line class="st1" x1="290.8" y1="234.56" x2="228.19" y2="234.56"/>
<line class="st1" x1="290.8" y1="236.56" x2="228.19" y2="236.56"/>
<line class="st1" x1="290.8" y1="279.56" x2="228.19" y2="279.56"/>
<g>
	<polygon class="st1" points="281.31,240.91 280.12,240.91 273.26,240.91 272.08,240.91 267.49,245.68 267.49,253.42 272.4,258.53 
		273.26,258.53 280.12,258.53 280.98,258.53 285.89,253.42 285.89,245.68 	"/>
	<g>
		<polyline class="st1" points="266.21,243.79 270.2,239.8 271.11,238.89 		"/>
		<line class="st1" x1="271.46" y1="241.55" x2="269.96" y2="240.04"/>
		<line class="st1" x1="268.89" y1="244.2" x2="267.39" y2="242.7"/>
	</g>
	<g>
		<polyline class="st1" points="282.96,239.6 286.92,243.63 287.82,244.55 		"/>
		<line class="st1" x1="285.16" y1="244.88" x2="286.68" y2="243.39"/>
		<line class="st1" x1="282.53" y1="242.29" x2="284.05" y2="240.79"/>
	</g>
	<g>
		<polyline class="st1" points="266.21,254.98 270.2,258.97 271.11,259.88 		"/>
		<line class="st1" x1="271.46" y1="257.22" x2="269.96" y2="258.73"/>
		<line class="st1" x1="268.89" y1="254.57" x2="267.39" y2="256.08"/>
	</g>
	<g>
		<polyline class="st1" points="282.96,259.17 286.92,255.14 287.82,254.22 		"/>
		<line class="st1" x1="285.16" y1="253.89" x2="286.68" y2="255.38"/>
		<line class="st1" x1="282.53" y1="256.49" x2="284.05" y2="257.98"/>
	</g>
</g>
<g>
	<line class="st1" x1="258.73" y1="270.65" x2="262.64" y2="276.27"/>
	<line class="st1" x1="266.13" y1="265.61" x2="270.04" y2="271.24"/>
	<line class="st1" x1="261.57" y1="274.23" x2="268.73" y2="269.36"/>
	<line class="st1" x1="262.25" y1="275.71" x2="269.62" y2="270.65"/>
	<path class="st1" d="M259.79,271.64c-0.55-2.12,0.2-4.14,2.2-5.22c1.55-0.84,3.68-0.95,4.8,0.6"/>
</g>
<g>
	<line class="st1" x1="234.83" y1="264.12" x2="231.39" y2="270.04"/>
	<line class="st1" x1="242.52" y1="268.68" x2="239.08" y2="274.6"/>
	<line class="st1" x1="232.79" y1="268.2" x2="240.24" y2="272.62"/>
	<line class="st1" x1="231.73" y1="269.45" x2="239.45" y2="273.98"/>
	<path class="st1" d="M234.38,265.49c1.69-1.4,3.83-1.57,5.66-0.22c1.42,1.05,2.42,2.93,1.49,4.6"/>
</g>
<circle class="st1" cx="250.59" cy="270.8" r="5.72"/>
<g>
	<polygon class="st1" points="281.31,212.91 280.12,212.91 273.26,212.91 272.08,212.91 267.49,217.68 267.49,225.42 272.4,230.53 
		273.26,230.53 280.12,230.53 280.98,230.53 285.89,225.42 285.89,217.68 	"/>
	<g>
		<polyline class="st1" points="266.21,215.79 270.2,211.8 271.11,210.89 		"/>
		<line class="st1" x1="271.46" y1="213.55" x2="269.96" y2="212.04"/>
		<line class="st1" x1="268.89" y1="216.2" x2="267.39" y2="214.7"/>
	</g>
	<g>
		<polyline class="st1" points="282.96,211.6 286.92,215.63 287.82,216.55 		"/>
		<line class="st1" x1="285.16" y1="216.88" x2="286.68" y2="215.39"/>
		<line class="st1" x1="282.53" y1="214.29" x2="284.05" y2="212.79"/>
	</g>
	<g>
		<polyline class="st1" points="266.21,226.98 270.2,230.97 271.11,231.88 		"/>
		<line class="st1" x1="271.46" y1="229.22" x2="269.96" y2="230.73"/>
		<line class="st1" x1="268.89" y1="226.57" x2="267.39" y2="228.08"/>
	</g>
	<g>
		<polyline class="st1" points="282.96,231.17 286.92,227.14 287.82,226.22 		"/>
		<line class="st1" x1="285.16" y1="225.89" x2="286.68" y2="227.38"/>
		<line class="st1" x1="282.53" y1="228.49" x2="284.05" y2="229.98"/>
	</g>
</g>
<g>
	<line class="st1" x1="258.74" y1="201.03" x2="262.85" y2="195.54"/>
	<line class="st1" x1="265.96" y1="206.32" x2="270.06" y2="200.83"/>
	<line class="st1" x1="261.71" y1="197.55" x2="268.69" y2="202.67"/>
	<line class="st1" x1="262.44" y1="196.09" x2="269.63" y2="201.41"/>
	<path class="st1" d="M259.84,200.08c-0.63,2.1,0.06,4.14,2.02,5.29c1.52,0.9,3.65,1.08,4.82-0.43"/>
</g>
<g>
	<line class="st1" x1="234.62" y1="206.71" x2="231.4" y2="200.66"/>
	<line class="st1" x1="242.47" y1="202.42" x2="239.25" y2="196.38"/>
	<line class="st1" x1="232.73" y1="202.55" x2="240.33" y2="198.4"/>
	<line class="st1" x1="231.72" y1="201.27" x2="239.59" y2="197.02"/>
	<path class="st1" d="M234.23,205.31c1.64,1.46,3.77,1.71,5.65,0.42c1.46-1,2.52-2.84,1.66-4.54"/>
</g>
<circle class="st1" cx="250.59" cy="200.8" r="5.72"/>
<line class="st2" x1="228.19" y1="282.42" x2="241.9" y2="290.65"/>
<path class="st1" d="M228.19,296.05c0,0,7.5,2.51,14.33-6.14"/>
<g>
	
		<rect x="240.41" y="315.59" transform="matrix(4.487794e-11 -1 1 4.487794e-11 -64.9191 587.0484)" class="st1" width="41.3" height="20.79"/>
	<line class="st1" x1="244.67" y1="340.91" x2="250.34" y2="340.91"/>
	<line class="st1" x1="244.67" y1="333.91" x2="250.34" y2="333.91"/>
	<line class="st1" x1="246.46" y1="340.68" x2="246.46" y2="333.91"/>
	<line class="st1" x1="248.46" y1="340.68" x2="248.46" y2="333.91"/>
	<line class="st1" x1="244.67" y1="327.91" x2="250.34" y2="327.91"/>
	<line class="st1" x1="244.67" y1="320.91" x2="250.34" y2="320.91"/>
	<line class="st1" x1="246.46" y1="327.68" x2="246.46" y2="320.91"/>
	<line class="st1" x1="248.46" y1="327.68" x2="248.46" y2="320.91"/>
	<line class="st1" x1="244.67" y1="314.91" x2="250.34" y2="314.91"/>
	<line class="st1" x1="244.67" y1="307.91" x2="250.34" y2="307.91"/>
	<line class="st1" x1="246.46" y1="314.68" x2="246.46" y2="307.91"/>
	<line class="st1" x1="248.46" y1="314.68" x2="248.46" y2="307.91"/>
	<line class="st1" x1="277.34" y1="340.91" x2="271.67" y2="340.91"/>
	<line class="st1" x1="277.34" y1="333.91" x2="271.67" y2="333.91"/>
	<line class="st1" x1="275.55" y1="340.68" x2="275.55" y2="333.91"/>
	<line class="st1" x1="273.55" y1="340.68" x2="273.55" y2="333.91"/>
	<line class="st1" x1="277.34" y1="327.91" x2="271.67" y2="327.91"/>
	<line class="st1" x1="277.34" y1="320.91" x2="271.67" y2="320.91"/>
	<line class="st1" x1="275.55" y1="327.68" x2="275.55" y2="320.91"/>
	<line class="st1" x1="273.55" y1="327.68" x2="273.55" y2="320.91"/>
	<line class="st1" x1="277.34" y1="314.91" x2="271.67" y2="314.91"/>
	<line class="st1" x1="277.34" y1="307.91" x2="271.67" y2="307.91"/>
	<line class="st1" x1="275.55" y1="314.68" x2="275.55" y2="307.91"/>
	<line class="st1" x1="273.55" y1="314.68" x2="273.55" y2="307.91"/>
	<line class="st1" x1="257.27" y1="346.63" x2="257.27" y2="350.87"/>
	<line class="st1" x1="264.27" y1="346.63" x2="264.27" y2="350.87"/>
	<line class="st1" x1="257.27" y1="349.24" x2="264.27" y2="349.24"/>
	<line class="st1" x1="257.27" y1="304.87" x2="257.27" y2="300.63"/>
	<line class="st1" x1="264.27" y1="304.87" x2="264.27" y2="300.63"/>
	<line class="st1" x1="257.27" y1="302.26" x2="264.27" y2="302.26"/>
</g>
<line class="st1" x1="290.8" y1="105.58" x2="209.43" y2="105.58"/>
<path class="st1" d="M213.29,105.58l8.49,12.87c0,0,7.46-2.57,7.98-12.87"/>
<line class="st1" x1="244.87" y1="105.58" x2="244.87" y2="103"/>
<polygon class="st1" points="210.52,769.26 112.1,769.26 112.1,752.14 161.31,752.14 210.52,752.14 "/>
<line class="st1" x1="161.31" y1="769.26" x2="161.31" y2="752.14"/>
<g>
	<line class="st1" x1="120.1" y1="752.49" x2="120.1" y2="746.3"/>
	<line class="st1" x1="130.1" y1="752.49" x2="130.1" y2="746.3"/>
	<line class="st1" x1="120.29" y1="749.9" x2="129.77" y2="749.9"/>
	<line class="st1" x1="120.29" y1="748.05" x2="130.1" y2="748.05"/>
	<line class="st1" x1="143.1" y1="752.49" x2="143.1" y2="746.3"/>
	<line class="st1" x1="153.1" y1="752.49" x2="153.1" y2="746.3"/>
	<line class="st1" x1="143.29" y1="749.9" x2="152.77" y2="749.9"/>
	<line class="st1" x1="143.29" y1="748.05" x2="153.1" y2="748.05"/>
</g>
<g>
	<line class="st1" x1="169.1" y1="752.49" x2="169.1" y2="746.3"/>
	<line class="st1" x1="179.1" y1="752.49" x2="179.1" y2="746.3"/>
	<line class="st1" x1="169.29" y1="749.9" x2="178.77" y2="749.9"/>
	<line class="st1" x1="169.29" y1="748.05" x2="179.1" y2="748.05"/>
	<line class="st1" x1="192.1" y1="752.49" x2="192.1" y2="746.3"/>
	<line class="st1" x1="202.1" y1="752.49" x2="202.1" y2="746.3"/>
	<line class="st1" x1="192.29" y1="749.9" x2="201.77" y2="749.9"/>
	<line class="st1" x1="192.29" y1="748.05" x2="202.1" y2="748.05"/>
</g>
<g>
	<line class="st1" x1="120.1" y1="769.3" x2="120.1" y2="775.49"/>
	<line class="st1" x1="130.1" y1="769.3" x2="130.1" y2="775.49"/>
	<line class="st1" x1="120.29" y1="771.9" x2="129.77" y2="771.9"/>
	<line class="st1" x1="120.29" y1="773.75" x2="130.1" y2="773.75"/>
	<line class="st1" x1="143.1" y1="769.3" x2="143.1" y2="775.49"/>
	<line class="st1" x1="153.1" y1="769.3" x2="153.1" y2="775.49"/>
	<line class="st1" x1="143.29" y1="771.9" x2="152.77" y2="771.9"/>
	<line class="st1" x1="143.29" y1="773.75" x2="153.1" y2="773.75"/>
</g>
<g>
	<line class="st1" x1="169.1" y1="769.3" x2="169.1" y2="775.49"/>
	<line class="st1" x1="179.1" y1="769.3" x2="179.1" y2="775.49"/>
	<line class="st1" x1="169.29" y1="771.9" x2="178.77" y2="771.9"/>
	<line class="st1" x1="169.29" y1="773.75" x2="179.1" y2="773.75"/>
	<line class="st1" x1="192.1" y1="769.3" x2="192.1" y2="775.49"/>
	<line class="st1" x1="202.1" y1="769.3" x2="202.1" y2="775.49"/>
	<line class="st1" x1="192.29" y1="771.9" x2="201.77" y2="771.9"/>
	<line class="st1" x1="192.29" y1="773.75" x2="202.1" y2="773.75"/>
</g>
<polygon class="st1" points="210.52,726.26 112.1,726.26 112.1,709.14 161.31,709.14 210.52,709.14 "/>
<line class="st1" x1="161.31" y1="726.26" x2="161.31" y2="709.14"/>
<g>
	<line class="st1" x1="120.1" y1="709.49" x2="120.1" y2="703.3"/>
	<line class="st1" x1="130.1" y1="709.49" x2="130.1" y2="703.3"/>
	<line class="st1" x1="120.29" y1="706.9" x2="129.77" y2="706.9"/>
	<line class="st1" x1="120.29" y1="705.05" x2="130.1" y2="705.05"/>
	<line class="st1" x1="143.1" y1="709.49" x2="143.1" y2="703.3"/>
	<line class="st1" x1="153.1" y1="709.49" x2="153.1" y2="703.3"/>
	<line class="st1" x1="143.29" y1="706.9" x2="152.77" y2="706.9"/>
	<line class="st1" x1="143.29" y1="705.05" x2="153.1" y2="705.05"/>
</g>
<g>
	<line class="st1" x1="169.1" y1="709.49" x2="169.1" y2="703.3"/>
	<line class="st1" x1="179.1" y1="709.49" x2="179.1" y2="703.3"/>
	<line class="st1" x1="169.29" y1="706.9" x2="178.77" y2="706.9"/>
	<line class="st1" x1="169.29" y1="705.05" x2="179.1" y2="705.05"/>
	<line class="st1" x1="192.1" y1="709.49" x2="192.1" y2="703.3"/>
	<line class="st1" x1="202.1" y1="709.49" x2="202.1" y2="703.3"/>
	<line class="st1" x1="192.29" y1="706.9" x2="201.77" y2="706.9"/>
	<line class="st1" x1="192.29" y1="705.05" x2="202.1" y2="705.05"/>
</g>
<g>
	<line class="st1" x1="120.1" y1="726.3" x2="120.1" y2="732.49"/>
	<line class="st1" x1="130.1" y1="726.3" x2="130.1" y2="732.49"/>
	<line class="st1" x1="120.29" y1="728.9" x2="129.77" y2="728.9"/>
	<line class="st1" x1="120.29" y1="730.75" x2="130.1" y2="730.75"/>
	<line class="st1" x1="143.1" y1="726.3" x2="143.1" y2="732.49"/>
	<line class="st1" x1="153.1" y1="726.3" x2="153.1" y2="732.49"/>
	<line class="st1" x1="143.29" y1="728.9" x2="152.77" y2="728.9"/>
	<line class="st1" x1="143.29" y1="730.75" x2="153.1" y2="730.75"/>
</g>
<g>
	<line class="st1" x1="169.1" y1="726.3" x2="169.1" y2="732.49"/>
	<line class="st1" x1="179.1" y1="726.3" x2="179.1" y2="732.49"/>
	<line class="st1" x1="169.29" y1="728.9" x2="178.77" y2="728.9"/>
	<line class="st1" x1="169.29" y1="730.75" x2="179.1" y2="730.75"/>
	<line class="st1" x1="192.1" y1="726.3" x2="192.1" y2="732.49"/>
	<line class="st1" x1="202.1" y1="726.3" x2="202.1" y2="732.49"/>
	<line class="st1" x1="192.29" y1="728.9" x2="201.77" y2="728.9"/>
	<line class="st1" x1="192.29" y1="730.75" x2="202.1" y2="730.75"/>
</g>
<rect x="128.66" y="302.75" class="st1" width="10.6" height="37.93"/>
<rect x="155.66" y="302.75" class="st1" width="10.6" height="37.93"/>
<rect x="184.66" y="302.75" class="st1" width="10.6" height="37.93"/>
<rect x="134.94" y="640.75" class="st1" width="49.67" height="19.12"/>
<g>
	<line class="st1" x1="138.63" y1="640.33" x2="138.63" y2="636.77"/>
	<line class="st1" x1="148.63" y1="640.33" x2="148.63" y2="636.77"/>
	<line class="st1" x1="138.91" y1="637.82" x2="148.33" y2="637.82"/>
	<line class="st1" x1="138.91" y1="639.82" x2="148.33" y2="639.82"/>
</g>
<g>
	<line class="st1" x1="155.13" y1="640.33" x2="155.13" y2="636.77"/>
	<line class="st1" x1="165.13" y1="640.33" x2="165.13" y2="636.77"/>
	<line class="st1" x1="155.41" y1="637.82" x2="164.83" y2="637.82"/>
	<line class="st1" x1="155.41" y1="639.82" x2="164.83" y2="639.82"/>
</g>
<g>
	<line class="st1" x1="171.63" y1="640.33" x2="171.63" y2="636.77"/>
	<line class="st1" x1="181.63" y1="640.33" x2="181.63" y2="636.77"/>
	<line class="st1" x1="171.91" y1="637.82" x2="181.33" y2="637.82"/>
	<line class="st1" x1="171.91" y1="639.82" x2="181.33" y2="639.82"/>
</g>
<g>
	<line class="st1" x1="138.63" y1="659.77" x2="138.63" y2="663.33"/>
	<line class="st1" x1="148.63" y1="659.77" x2="148.63" y2="663.33"/>
	<line class="st1" x1="138.91" y1="662.28" x2="148.33" y2="662.28"/>
	<line class="st1" x1="138.91" y1="660.28" x2="148.33" y2="660.28"/>
</g>
<g>
	<line class="st1" x1="155.13" y1="659.77" x2="155.13" y2="663.33"/>
	<line class="st1" x1="165.13" y1="659.77" x2="165.13" y2="663.33"/>
	<line class="st1" x1="155.41" y1="662.28" x2="164.83" y2="662.28"/>
	<line class="st1" x1="155.41" y1="660.28" x2="164.83" y2="660.28"/>
</g>
<g>
	<line class="st1" x1="171.63" y1="659.77" x2="171.63" y2="663.33"/>
	<line class="st1" x1="181.63" y1="659.77" x2="181.63" y2="663.33"/>
	<line class="st1" x1="171.91" y1="662.28" x2="181.33" y2="662.28"/>
	<line class="st1" x1="171.91" y1="660.28" x2="181.33" y2="660.28"/>
</g>
<rect x="137.43" y="139.89" class="st1" width="49.67" height="19.12"/>
<g>
	<line class="st1" x1="141.12" y1="139.48" x2="141.12" y2="135.92"/>
	<line class="st1" x1="151.12" y1="139.48" x2="151.12" y2="135.92"/>
	<line class="st1" x1="141.4" y1="136.96" x2="150.82" y2="136.96"/>
	<line class="st1" x1="141.4" y1="138.96" x2="150.82" y2="138.96"/>
</g>
<g>
	<line class="st1" x1="157.62" y1="139.48" x2="157.62" y2="135.92"/>
	<line class="st1" x1="167.62" y1="139.48" x2="167.62" y2="135.92"/>
	<line class="st1" x1="157.9" y1="136.96" x2="167.32" y2="136.96"/>
	<line class="st1" x1="157.9" y1="138.96" x2="167.32" y2="138.96"/>
</g>
<g>
	<line class="st1" x1="174.12" y1="139.48" x2="174.12" y2="135.92"/>
	<line class="st1" x1="184.12" y1="139.48" x2="184.12" y2="135.92"/>
	<line class="st1" x1="174.4" y1="136.96" x2="183.82" y2="136.96"/>
	<line class="st1" x1="174.4" y1="138.96" x2="183.82" y2="138.96"/>
</g>
<g>
	<line class="st1" x1="141.12" y1="158.92" x2="141.12" y2="162.48"/>
	<line class="st1" x1="151.12" y1="158.92" x2="151.12" y2="162.48"/>
	<line class="st1" x1="141.4" y1="161.43" x2="150.82" y2="161.43"/>
	<line class="st1" x1="141.4" y1="159.43" x2="150.82" y2="159.43"/>
</g>
<g>
	<line class="st1" x1="157.62" y1="158.92" x2="157.62" y2="162.48"/>
	<line class="st1" x1="167.62" y1="158.92" x2="167.62" y2="162.48"/>
	<line class="st1" x1="157.9" y1="161.43" x2="167.32" y2="161.43"/>
	<line class="st1" x1="157.9" y1="159.43" x2="167.32" y2="159.43"/>
</g>
<g>
	<line class="st1" x1="174.12" y1="158.92" x2="174.12" y2="162.48"/>
	<line class="st1" x1="184.12" y1="158.92" x2="184.12" y2="162.48"/>
	<line class="st1" x1="174.4" y1="161.43" x2="183.82" y2="161.43"/>
	<line class="st1" x1="174.4" y1="159.43" x2="183.82" y2="159.43"/>
</g>
<line class="st1" x1="34.43" y1="105.58" x2="115.8" y2="105.58"/>
<path class="st1" d="M111.94,105.58l-8.49,12.87c0,0-7.46-2.57-7.98-12.87"/>
<line class="st1" x1="80.36" y1="105.58" x2="80.36" y2="103"/>
<g>
	<rect x="35.36" y="752.24" class="st1" width="49.49" height="17.3"/>
	<g>
		<line class="st1" x1="43.73" y1="751.77" x2="43.73" y2="747.12"/>
		<line class="st1" x1="53.73" y1="751.77" x2="53.73" y2="747.12"/>
		<line class="st1" x1="43.73" y1="748.24" x2="53.73" y2="748.24"/>
		<line class="st1" x1="43.73" y1="750.24" x2="53.73" y2="750.24"/>
	</g>
	<g>
		<line class="st1" x1="66.73" y1="751.77" x2="66.73" y2="747.12"/>
		<line class="st1" x1="76.73" y1="751.77" x2="76.73" y2="747.12"/>
		<line class="st1" x1="66.73" y1="748.24" x2="76.73" y2="748.24"/>
		<line class="st1" x1="66.73" y1="750.24" x2="76.73" y2="750.24"/>
	</g>
	<g>
		<line class="st1" x1="43.73" y1="770.12" x2="43.73" y2="774.77"/>
		<line class="st1" x1="53.73" y1="770.12" x2="53.73" y2="774.77"/>
		<line class="st1" x1="43.73" y1="773.65" x2="53.73" y2="773.65"/>
		<line class="st1" x1="43.73" y1="771.65" x2="53.73" y2="771.65"/>
	</g>
	<g>
		<line class="st1" x1="66.73" y1="770.12" x2="66.73" y2="774.77"/>
		<line class="st1" x1="76.73" y1="770.12" x2="76.73" y2="774.77"/>
		<line class="st1" x1="66.73" y1="773.65" x2="76.73" y2="773.65"/>
		<line class="st1" x1="66.73" y1="771.65" x2="76.73" y2="771.65"/>
	</g>
</g>
<g>
	<rect x="35.36" y="709.24" class="st1" width="49.49" height="17.3"/>
	<g>
		<line class="st1" x1="43.73" y1="708.77" x2="43.73" y2="704.12"/>
		<line class="st1" x1="53.73" y1="708.77" x2="53.73" y2="704.12"/>
		<line class="st1" x1="43.73" y1="705.24" x2="53.73" y2="705.24"/>
		<line class="st1" x1="43.73" y1="707.24" x2="53.73" y2="707.24"/>
	</g>
	<g>
		<line class="st1" x1="66.73" y1="708.77" x2="66.73" y2="704.12"/>
		<line class="st1" x1="76.73" y1="708.77" x2="76.73" y2="704.12"/>
		<line class="st1" x1="66.73" y1="705.24" x2="76.73" y2="705.24"/>
		<line class="st1" x1="66.73" y1="707.24" x2="76.73" y2="707.24"/>
	</g>
	<g>
		<line class="st1" x1="43.73" y1="727.12" x2="43.73" y2="731.77"/>
		<line class="st1" x1="53.73" y1="727.12" x2="53.73" y2="731.77"/>
		<line class="st1" x1="43.73" y1="730.65" x2="53.73" y2="730.65"/>
		<line class="st1" x1="43.73" y1="728.65" x2="53.73" y2="728.65"/>
	</g>
	<g>
		<line class="st1" x1="66.73" y1="727.12" x2="66.73" y2="731.77"/>
		<line class="st1" x1="76.73" y1="727.12" x2="76.73" y2="731.77"/>
		<line class="st1" x1="66.73" y1="730.65" x2="76.73" y2="730.65"/>
		<line class="st1" x1="66.73" y1="728.65" x2="76.73" y2="728.65"/>
	</g>
</g>
<g>
	<rect x="35.36" y="668.24" class="st1" width="49.49" height="17.3"/>
	<g>
		<line class="st1" x1="43.73" y1="667.77" x2="43.73" y2="663.12"/>
		<line class="st1" x1="53.73" y1="667.77" x2="53.73" y2="663.12"/>
		<line class="st1" x1="43.73" y1="664.24" x2="53.73" y2="664.24"/>
		<line class="st1" x1="43.73" y1="666.24" x2="53.73" y2="666.24"/>
	</g>
	<g>
		<line class="st1" x1="66.73" y1="667.77" x2="66.73" y2="663.12"/>
		<line class="st1" x1="76.73" y1="667.77" x2="76.73" y2="663.12"/>
		<line class="st1" x1="66.73" y1="664.24" x2="76.73" y2="664.24"/>
		<line class="st1" x1="66.73" y1="666.24" x2="76.73" y2="666.24"/>
	</g>
	<g>
		<line class="st1" x1="43.73" y1="686.12" x2="43.73" y2="690.77"/>
		<line class="st1" x1="53.73" y1="686.12" x2="53.73" y2="690.77"/>
		<line class="st1" x1="43.73" y1="689.65" x2="53.73" y2="689.65"/>
		<line class="st1" x1="43.73" y1="687.65" x2="53.73" y2="687.65"/>
	</g>
	<g>
		<line class="st1" x1="66.73" y1="686.12" x2="66.73" y2="690.77"/>
		<line class="st1" x1="76.73" y1="686.12" x2="76.73" y2="690.77"/>
		<line class="st1" x1="66.73" y1="689.65" x2="76.73" y2="689.65"/>
		<line class="st1" x1="66.73" y1="687.65" x2="76.73" y2="687.65"/>
	</g>
</g>
<g>
	<rect x="35.36" y="628.24" class="st1" width="49.49" height="17.3"/>
	<g>
		<line class="st1" x1="43.73" y1="627.77" x2="43.73" y2="623.12"/>
		<line class="st1" x1="53.73" y1="627.77" x2="53.73" y2="623.12"/>
		<line class="st1" x1="43.73" y1="624.24" x2="53.73" y2="624.24"/>
		<line class="st1" x1="43.73" y1="626.24" x2="53.73" y2="626.24"/>
	</g>
	<g>
		<line class="st1" x1="66.73" y1="627.77" x2="66.73" y2="623.12"/>
		<line class="st1" x1="76.73" y1="627.77" x2="76.73" y2="623.12"/>
		<line class="st1" x1="66.73" y1="624.24" x2="76.73" y2="624.24"/>
		<line class="st1" x1="66.73" y1="626.24" x2="76.73" y2="626.24"/>
	</g>
	<g>
		<line class="st1" x1="43.73" y1="646.12" x2="43.73" y2="650.77"/>
		<line class="st1" x1="53.73" y1="646.12" x2="53.73" y2="650.77"/>
		<line class="st1" x1="43.73" y1="649.65" x2="53.73" y2="649.65"/>
		<line class="st1" x1="43.73" y1="647.65" x2="53.73" y2="647.65"/>
	</g>
	<g>
		<line class="st1" x1="66.73" y1="646.12" x2="66.73" y2="650.77"/>
		<line class="st1" x1="76.73" y1="646.12" x2="76.73" y2="650.77"/>
		<line class="st1" x1="66.73" y1="649.65" x2="76.73" y2="649.65"/>
		<line class="st1" x1="66.73" y1="647.65" x2="76.73" y2="647.65"/>
	</g>
</g>
<g>
	<rect x="35.36" y="127.24" class="st1" width="49.49" height="17.3"/>
	<g>
		<line class="st1" x1="43.73" y1="126.77" x2="43.73" y2="122.12"/>
		<line class="st1" x1="53.73" y1="126.77" x2="53.73" y2="122.12"/>
		<line class="st1" x1="43.73" y1="123.24" x2="53.73" y2="123.24"/>
		<line class="st1" x1="43.73" y1="125.24" x2="53.73" y2="125.24"/>
	</g>
	<g>
		<line class="st1" x1="66.73" y1="126.77" x2="66.73" y2="122.12"/>
		<line class="st1" x1="76.73" y1="126.77" x2="76.73" y2="122.12"/>
		<line class="st1" x1="66.73" y1="123.24" x2="76.73" y2="123.24"/>
		<line class="st1" x1="66.73" y1="125.24" x2="76.73" y2="125.24"/>
	</g>
	<g>
		<line class="st1" x1="43.73" y1="145.12" x2="43.73" y2="149.77"/>
		<line class="st1" x1="53.73" y1="145.12" x2="53.73" y2="149.77"/>
		<line class="st1" x1="43.73" y1="148.65" x2="53.73" y2="148.65"/>
		<line class="st1" x1="43.73" y1="146.65" x2="53.73" y2="146.65"/>
	</g>
	<g>
		<line class="st1" x1="66.73" y1="145.12" x2="66.73" y2="149.77"/>
		<line class="st1" x1="76.73" y1="145.12" x2="76.73" y2="149.77"/>
		<line class="st1" x1="66.73" y1="148.65" x2="76.73" y2="148.65"/>
		<line class="st1" x1="66.73" y1="146.65" x2="76.73" y2="146.65"/>
	</g>
</g>
<g>
	<rect x="240.36" y="127.24" class="st1" width="49.49" height="17.3"/>
	<g>
		<line class="st1" x1="248.73" y1="126.77" x2="248.73" y2="122.12"/>
		<line class="st1" x1="258.73" y1="126.77" x2="258.73" y2="122.12"/>
		<line class="st1" x1="248.73" y1="123.24" x2="258.73" y2="123.24"/>
		<line class="st1" x1="248.73" y1="125.24" x2="258.73" y2="125.24"/>
	</g>
	<g>
		<line class="st1" x1="271.73" y1="126.77" x2="271.73" y2="122.12"/>
		<line class="st1" x1="281.73" y1="126.77" x2="281.73" y2="122.12"/>
		<line class="st1" x1="271.73" y1="123.24" x2="281.73" y2="123.24"/>
		<line class="st1" x1="271.73" y1="125.24" x2="281.73" y2="125.24"/>
	</g>
	<g>
		<line class="st1" x1="248.73" y1="145.12" x2="248.73" y2="149.77"/>
		<line class="st1" x1="258.73" y1="145.12" x2="258.73" y2="149.77"/>
		<line class="st1" x1="248.73" y1="148.65" x2="258.73" y2="148.65"/>
		<line class="st1" x1="248.73" y1="146.65" x2="258.73" y2="146.65"/>
	</g>
	<g>
		<line class="st1" x1="271.73" y1="145.12" x2="271.73" y2="149.77"/>
		<line class="st1" x1="281.73" y1="145.12" x2="281.73" y2="149.77"/>
		<line class="st1" x1="271.73" y1="148.65" x2="281.73" y2="148.65"/>
		<line class="st1" x1="271.73" y1="146.65" x2="281.73" y2="146.65"/>
	</g>
</g>
<rect x="120.56" y="406.88" transform="matrix(2.701134e-11 -1 1 2.701134e-11 -254.5547 578.3124)" class="st1" width="82.63" height="19.12"/>
<g>
	<line class="st1" x1="151.9" y1="454.05" x2="148.34" y2="454.05"/>
	<line class="st1" x1="151.9" y1="444.05" x2="148.34" y2="444.05"/>
	<line class="st1" x1="149.39" y1="453.77" x2="149.39" y2="444.35"/>
	<line class="st1" x1="151.39" y1="453.77" x2="151.39" y2="444.35"/>
</g>
<g>
	<line class="st1" x1="151.9" y1="437.55" x2="148.34" y2="437.55"/>
	<line class="st1" x1="151.9" y1="427.55" x2="148.34" y2="427.55"/>
	<line class="st1" x1="149.39" y1="437.27" x2="149.39" y2="427.85"/>
	<line class="st1" x1="151.39" y1="437.27" x2="151.39" y2="427.85"/>
</g>
<g>
	<line class="st1" x1="151.9" y1="421.05" x2="148.34" y2="421.05"/>
	<line class="st1" x1="151.9" y1="411.05" x2="148.34" y2="411.05"/>
	<line class="st1" x1="149.39" y1="420.77" x2="149.39" y2="411.35"/>
	<line class="st1" x1="151.39" y1="420.77" x2="151.39" y2="411.35"/>
</g>
<g>
	<line class="st1" x1="171.34" y1="454.05" x2="174.9" y2="454.05"/>
	<line class="st1" x1="171.34" y1="444.05" x2="174.9" y2="444.05"/>
	<line class="st1" x1="173.86" y1="453.77" x2="173.86" y2="444.35"/>
	<line class="st1" x1="171.86" y1="453.77" x2="171.86" y2="444.35"/>
</g>
<g>
	<line class="st1" x1="171.34" y1="437.55" x2="174.9" y2="437.55"/>
	<line class="st1" x1="171.34" y1="427.55" x2="174.9" y2="427.55"/>
	<line class="st1" x1="173.86" y1="437.27" x2="173.86" y2="427.85"/>
	<line class="st1" x1="171.86" y1="437.27" x2="171.86" y2="427.85"/>
</g>
<g>
	<line class="st1" x1="171.34" y1="421.05" x2="174.9" y2="421.05"/>
	<line class="st1" x1="171.34" y1="411.05" x2="174.9" y2="411.05"/>
	<line class="st1" x1="173.86" y1="420.77" x2="173.86" y2="411.35"/>
	<line class="st1" x1="171.86" y1="420.77" x2="171.86" y2="411.35"/>
</g>
<g>
	<line class="st1" x1="151.9" y1="405.05" x2="148.34" y2="405.05"/>
	<line class="st1" x1="151.9" y1="395.05" x2="148.34" y2="395.05"/>
	<line class="st1" x1="149.39" y1="404.77" x2="149.39" y2="395.35"/>
	<line class="st1" x1="151.39" y1="404.77" x2="151.39" y2="395.35"/>
</g>
<g>
	<line class="st1" x1="171.34" y1="405.05" x2="174.9" y2="405.05"/>
	<line class="st1" x1="171.34" y1="395.05" x2="174.9" y2="395.05"/>
	<line class="st1" x1="173.86" y1="404.77" x2="173.86" y2="395.35"/>
	<line class="st1" x1="171.86" y1="404.77" x2="171.86" y2="395.35"/>
</g>
<g>
	<line class="st1" x1="151.9" y1="389.05" x2="148.34" y2="389.05"/>
	<line class="st1" x1="151.9" y1="379.05" x2="148.34" y2="379.05"/>
	<line class="st1" x1="149.39" y1="388.77" x2="149.39" y2="379.35"/>
	<line class="st1" x1="151.39" y1="388.77" x2="151.39" y2="379.35"/>
</g>
<g>
	<line class="st1" x1="171.34" y1="389.05" x2="174.9" y2="389.05"/>
	<line class="st1" x1="171.34" y1="379.05" x2="174.9" y2="379.05"/>
	<line class="st1" x1="173.86" y1="388.77" x2="173.86" y2="379.35"/>
	<line class="st1" x1="171.86" y1="388.77" x2="171.86" y2="379.35"/>
</g>
<circle class="st1" cx="159.96" cy="259.74" r="5.3"/>
<ellipse class="st1" cx="143.14" cy="262.16" rx="5.2" ry="7.72"/>
<ellipse class="st1" cx="177.14" cy="262.16" rx="5.2" ry="7.72"/>
<ellipse transform="matrix(0.5 -0.866 0.866 0.5 -136.4923 252.148)" class="st1" cx="150.12" cy="244.28" rx="7.72" ry="5.2"/>
<ellipse transform="matrix(0.6138 -0.7895 0.7895 0.6138 -127.149 228.6456)" class="st1" cx="170.12" cy="244.28" rx="5.2" ry="7.72"/>
<polyline class="st1" points="102.39,519.05 56.82,519.25 56.82,509.62 52.1,509.62 52.1,507.46 102.39,507.46 102.39,558.34 
	32.7,558.34 "/>
<rect x="59.47" y="512.06" class="st1" width="8.08" height="5"/>
<rect x="80.47" y="512.06" class="st1" width="8.08" height="5"/>
<rect x="88.47" y="512.06" class="st1" width="13.92" height="5"/>
<polyline class="st1" points="59.47,507.46 59.47,517.06 102.39,517.06 "/>
<path class="st1" d="M36.84,507.46v-15.18c0,0,11.96-1.04,15.26,15.18"/>
<path class="st0" d="M34.89,476.88"/>
<rect x="34.89" y="423.49" class="st1" width="10.6" height="55.4"/>
<line class="st1" x1="40.19" y1="423.49" x2="40.19" y2="478.89"/>
<line class="st1" x1="34.89" y1="433.96" x2="45.5" y2="433.96"/>
<line class="st1" x1="34.89" y1="436.96" x2="45.5" y2="436.96"/>
<line class="st1" x1="34.89" y1="451.96" x2="45.5" y2="451.96"/>
<line class="st1" x1="34.89" y1="462.96" x2="45.5" y2="462.96"/>
<line class="st1" x1="34.89" y1="464.96" x2="45.5" y2="464.96"/>
<polyline class="st1" points="55.54,286.54 102.39,286.54 102.39,478.89 "/>
<rect x="89.03" y="418.05" class="st1" width="10.74" height="56.23"/>
<polyline class="st1" points="99.77,403.68 99.77,474.28 102.39,474.28 "/>
<polyline class="st1" points="99.77,411.05 90.57,411.05 90.57,416.93 99.77,416.93 "/>
<line class="st1" x1="99.77" y1="396.89" x2="99.77" y2="393.54"/>
<polyline class="st1" points="99.77,394.65 89.77,394.65 89.77,409.07 99.77,409.07 "/>
<polygon class="st1" points="72.66,403.68 51.63,403.68 51.63,398 51.63,392.33 72.66,392.33 "/>
<line class="st1" x1="72.66" y1="398" x2="51.63" y2="398"/>
<line class="st1" x1="62.52" y1="392.33" x2="62.52" y2="403.68"/>
<path class="st1" d="M36.19,375.68h1.77v13.21c0,0,9.3,0.56,10.88-10.79"/>
<line class="st1" x1="51.8" y1="375.31" x2="48.19" y2="375.31"/>
<line class="st1" x1="33.51" y1="358.84" x2="39.82" y2="358.84"/>
<line class="st1" x1="35.54" y1="341.91" x2="52.47" y2="341.91"/>
<line class="st1" x1="35.54" y1="344.91" x2="52.47" y2="344.91"/>
<line class="st1" x1="35.54" y1="347.91" x2="52.47" y2="347.91"/>
<rect x="38.43" y="347.91" class="st1" width="9.02" height="7.77"/>
<rect x="51.63" y="339.77" class="st2" width="50.75" height="52.93"/>
<rect x="55.54" y="343.86" class="st2" width="43.63" height="30.05"/>
<rect x="60.47" y="347.03" class="st2" width="30.6" height="24.28"/>
<rect x="95.73" y="347.03" class="st2" width="2.98" height="24.28"/>
<rect x="57.77" y="358.84" class="st1" width="5.67" height="1.67"/>
<rect x="88.77" y="358.84" class="st1" width="5.67" height="1.67"/>
<line class="st1" x1="101.77" y1="377.26" x2="51.8" y2="377.26"/>
<line class="st1" x1="51.8" y1="378.28" x2="102.39" y2="391.86"/>
<line class="st1" x1="51.8" y1="391.49" x2="102.8" y2="377.26"/>
<path class="st1" d="M102.39,337.07l-13.61-8.65c0,0,3.44-6.98,13.61-7.44"/>
<path class="st1" d="M102.39,304.98l-13.61,8.65c0,0,3.44,6.98,13.61,7.44"/>
<line class="st1" x1="35.45" y1="221.07" x2="35.45" y2="254.93"/>
<polyline class="st1" points="35.45,203.72 58.19,203.72 58.19,286.54 "/>
<path class="st1" d="M54.98,214.05"/>
<line class="st2" x1="54.98" y1="214.05" x2="54.98" y2="284.79"/>
<line class="st1" x1="36.84" y1="208.33" x2="36.84" y2="290.1"/>
<line class="st1" x1="36.84" y1="219.96" x2="54.98" y2="219.96"/>
<line class="st1" x1="36.84" y1="214.65" x2="54.98" y2="214.65"/>
<line class="st1" x1="36.84" y1="225.27" x2="54.98" y2="225.27"/>
<line class="st1" x1="36.84" y1="230.58" x2="54.98" y2="230.58"/>
<line class="st1" x1="36.84" y1="235.89" x2="54.98" y2="235.89"/>
<line class="st1" x1="36.84" y1="241.19" x2="54.98" y2="241.19"/>
<line class="st1" x1="36.84" y1="246.5" x2="54.98" y2="246.5"/>
<line class="st1" x1="36.84" y1="251.81" x2="54.98" y2="251.81"/>
<line class="st1" x1="36.84" y1="257.12" x2="54.98" y2="257.12"/>
<line class="st1" x1="36.84" y1="256.65" x2="54.98" y2="256.65"/>
<line class="st1" x1="36.84" y1="262.42" x2="54.98" y2="262.42"/>
<line class="st1" x1="36.84" y1="267.73" x2="54.98" y2="267.73"/>
<line class="st1" x1="36.84" y1="270.65" x2="54.98" y2="270.65"/>
<line class="st1" x1="36.84" y1="273.04" x2="54.98" y2="273.04"/>
<line class="st1" x1="36.84" y1="278.35" x2="54.98" y2="278.35"/>
<line class="st1" x1="36.84" y1="283.65" x2="54.98" y2="283.65"/>
<g>
	<line class="st1" x1="68.28" y1="267.19" x2="62.62" y2="263.33"/>
	<line class="st1" x1="73.25" y1="259.76" x2="67.59" y2="255.9"/>
	<line class="st1" x1="64.67" y1="264.38" x2="69.49" y2="257.19"/>
	<line class="st1" x1="63.18" y1="263.71" x2="68.19" y2="256.3"/>
	<path class="st1" d="M67.28,266.14c2.13,0.54,4.13-0.24,5.2-2.24c0.83-1.56,0.92-3.69-0.64-4.79"/>
</g>
<g>
	<line class="st1" x1="69.28" y1="271.9" x2="63.62" y2="275.76"/>
	<line class="st1" x1="74.25" y1="279.33" x2="68.59" y2="283.19"/>
	<line class="st1" x1="65.67" y1="274.7" x2="70.49" y2="281.9"/>
	<line class="st1" x1="64.18" y1="275.37" x2="69.19" y2="282.78"/>
	<path class="st1" d="M68.28,272.95c2.13-0.54,4.13,0.24,5.2,2.24c0.83,1.56,0.92,3.69-0.64,4.79"/>
</g>
<line class="st1" x1="94.77" y1="418.05" x2="94.77" y2="474.28"/>
<line class="st1" x1="89.03" y1="426" x2="99.77" y2="426"/>
<line class="st1" x1="89.03" y1="437" x2="99.77" y2="437"/>
<line class="st1" x1="89.03" y1="452" x2="99.77" y2="452"/>
<line class="st1" x1="89.03" y1="465" x2="99.77" y2="465"/>
<line class="st1" x1="89.03" y1="472" x2="99.77" y2="472"/>
<line class="st1" x1="44.8" y1="11.68" x2="281.11" y2="11.68"/>
<rect x="42.52" y="5.11" class="st1" width="238.59" height="12.92"/>
<rect x="97.59" y="34.38" class="st1" width="17.12" height="53.58"/>
<g>
	<line class="st1" x1="119.26" y1="72.61" x2="114.7" y2="72.61"/>
	<line class="st1" x1="119.26" y1="62.61" x2="114.7" y2="62.61"/>
	<line class="st1" x1="116.05" y1="72.33" x2="116.05" y2="62.91"/>
	<line class="st1" x1="118.61" y1="72.33" x2="118.61" y2="62.91"/>
</g>
<g>
	<line class="st1" x1="119.26" y1="60.11" x2="114.7" y2="60.11"/>
	<line class="st1" x1="119.26" y1="50.11" x2="114.7" y2="50.11"/>
	<line class="st1" x1="116.05" y1="59.83" x2="116.05" y2="50.41"/>
	<line class="st1" x1="118.61" y1="59.83" x2="118.61" y2="50.41"/>
</g>
<g>
	<line class="st1" x1="119.26" y1="46.61" x2="114.7" y2="46.61"/>
	<line class="st1" x1="119.26" y1="36.61" x2="114.7" y2="36.61"/>
	<line class="st1" x1="116.05" y1="46.33" x2="116.05" y2="36.91"/>
	<line class="st1" x1="118.61" y1="46.33" x2="118.61" y2="36.91"/>
</g>
<g>
	<line class="st1" x1="119.26" y1="85.61" x2="114.7" y2="85.61"/>
	<line class="st1" x1="119.26" y1="75.61" x2="114.7" y2="75.61"/>
	<line class="st1" x1="116.05" y1="85.33" x2="116.05" y2="75.91"/>
	<line class="st1" x1="118.61" y1="85.33" x2="118.61" y2="75.91"/>
</g>
<rect x="133.59" y="34.38" class="st1" width="17.12" height="53.58"/>
<g>
	<line class="st1" x1="155.26" y1="72.61" x2="150.7" y2="72.61"/>
	<line class="st1" x1="155.26" y1="62.61" x2="150.7" y2="62.61"/>
	<line class="st1" x1="152.05" y1="72.33" x2="152.05" y2="62.91"/>
	<line class="st1" x1="154.61" y1="72.33" x2="154.61" y2="62.91"/>
</g>
<g>
	<line class="st1" x1="155.26" y1="60.11" x2="150.7" y2="60.11"/>
	<line class="st1" x1="155.26" y1="50.11" x2="150.7" y2="50.11"/>
	<line class="st1" x1="152.05" y1="59.83" x2="152.05" y2="50.41"/>
	<line class="st1" x1="154.61" y1="59.83" x2="154.61" y2="50.41"/>
</g>
<g>
	<line class="st1" x1="155.26" y1="46.61" x2="150.7" y2="46.61"/>
	<line class="st1" x1="155.26" y1="36.61" x2="150.7" y2="36.61"/>
	<line class="st1" x1="152.05" y1="46.33" x2="152.05" y2="36.91"/>
	<line class="st1" x1="154.61" y1="46.33" x2="154.61" y2="36.91"/>
</g>
<g>
	<line class="st1" x1="155.26" y1="85.61" x2="150.7" y2="85.61"/>
	<line class="st1" x1="155.26" y1="75.61" x2="150.7" y2="75.61"/>
	<line class="st1" x1="152.05" y1="85.33" x2="152.05" y2="75.91"/>
	<line class="st1" x1="154.61" y1="85.33" x2="154.61" y2="75.91"/>
</g>
<rect x="168.59" y="34.38" class="st1" width="17.12" height="53.58"/>
<g>
	<line class="st1" x1="190.26" y1="72.61" x2="185.7" y2="72.61"/>
	<line class="st1" x1="190.26" y1="62.61" x2="185.7" y2="62.61"/>
	<line class="st1" x1="187.05" y1="72.33" x2="187.05" y2="62.91"/>
	<line class="st1" x1="189.61" y1="72.33" x2="189.61" y2="62.91"/>
</g>
<g>
	<line class="st1" x1="190.26" y1="60.11" x2="185.7" y2="60.11"/>
	<line class="st1" x1="190.26" y1="50.11" x2="185.7" y2="50.11"/>
	<line class="st1" x1="187.05" y1="59.83" x2="187.05" y2="50.41"/>
	<line class="st1" x1="189.61" y1="59.83" x2="189.61" y2="50.41"/>
</g>
<g>
	<line class="st1" x1="190.26" y1="46.61" x2="185.7" y2="46.61"/>
	<line class="st1" x1="190.26" y1="36.61" x2="185.7" y2="36.61"/>
	<line class="st1" x1="187.05" y1="46.33" x2="187.05" y2="36.91"/>
	<line class="st1" x1="189.61" y1="46.33" x2="189.61" y2="36.91"/>
</g>
<g>
	<line class="st1" x1="190.26" y1="85.61" x2="185.7" y2="85.61"/>
	<line class="st1" x1="190.26" y1="75.61" x2="185.7" y2="75.61"/>
	<line class="st1" x1="187.05" y1="85.33" x2="187.05" y2="75.91"/>
	<line class="st1" x1="189.61" y1="85.33" x2="189.61" y2="75.91"/>
</g>
<rect x="204.59" y="34.38" class="st1" width="17.12" height="53.58"/>
<g>
	<line class="st1" x1="226.26" y1="72.61" x2="221.7" y2="72.61"/>
	<line class="st1" x1="226.26" y1="62.61" x2="221.7" y2="62.61"/>
	<line class="st1" x1="223.05" y1="72.33" x2="223.05" y2="62.91"/>
	<line class="st1" x1="225.61" y1="72.33" x2="225.61" y2="62.91"/>
</g>
<g>
	<line class="st1" x1="226.26" y1="60.11" x2="221.7" y2="60.11"/>
	<line class="st1" x1="226.26" y1="50.11" x2="221.7" y2="50.11"/>
	<line class="st1" x1="223.05" y1="59.83" x2="223.05" y2="50.41"/>
	<line class="st1" x1="225.61" y1="59.83" x2="225.61" y2="50.41"/>
</g>
<g>
	<line class="st1" x1="226.26" y1="46.61" x2="221.7" y2="46.61"/>
	<line class="st1" x1="226.26" y1="36.61" x2="221.7" y2="36.61"/>
	<line class="st1" x1="223.05" y1="46.33" x2="223.05" y2="36.91"/>
	<line class="st1" x1="225.61" y1="46.33" x2="225.61" y2="36.91"/>
</g>
<g>
	<line class="st1" x1="226.26" y1="85.61" x2="221.7" y2="85.61"/>
	<line class="st1" x1="226.26" y1="75.61" x2="221.7" y2="75.61"/>
	<line class="st1" x1="223.05" y1="85.33" x2="223.05" y2="75.91"/>
	<line class="st1" x1="225.61" y1="85.33" x2="225.61" y2="75.91"/>
</g>
<rect x="240.59" y="34.38" class="st1" width="17.12" height="53.58"/>
<g>
	<line class="st1" x1="262.26" y1="72.61" x2="257.7" y2="72.61"/>
	<line class="st1" x1="262.26" y1="62.61" x2="257.7" y2="62.61"/>
	<line class="st1" x1="259.05" y1="72.33" x2="259.05" y2="62.91"/>
	<line class="st1" x1="261.61" y1="72.33" x2="261.61" y2="62.91"/>
</g>
<g>
	<line class="st1" x1="262.26" y1="60.11" x2="257.7" y2="60.11"/>
	<line class="st1" x1="262.26" y1="50.11" x2="257.7" y2="50.11"/>
	<line class="st1" x1="259.05" y1="59.83" x2="259.05" y2="50.41"/>
	<line class="st1" x1="261.61" y1="59.83" x2="261.61" y2="50.41"/>
</g>
<g>
	<line class="st1" x1="262.26" y1="46.61" x2="257.7" y2="46.61"/>
	<line class="st1" x1="262.26" y1="36.61" x2="257.7" y2="36.61"/>
	<line class="st1" x1="259.05" y1="46.33" x2="259.05" y2="36.91"/>
	<line class="st1" x1="261.61" y1="46.33" x2="261.61" y2="36.91"/>
</g>
<g>
	<line class="st1" x1="262.26" y1="85.61" x2="257.7" y2="85.61"/>
	<line class="st1" x1="262.26" y1="75.61" x2="257.7" y2="75.61"/>
	<line class="st1" x1="259.05" y1="85.33" x2="259.05" y2="75.91"/>
	<line class="st1" x1="261.61" y1="85.33" x2="261.61" y2="75.91"/>
</g>
</svg>
